# xmcd
#
# Track frame offsets:
# 150
# 13630
# 30714
# 44194
# 64413
# 79773
# 93096
# 105165
# 119271
# 133534
# 147797
# 164568
# 178831
# 198893
# 212373
# 226323
#
# Disc length: 3176 seconds
#
#
# Revision: 6
# Processed by: cddbd v1.5.1PL2 Copyright (c) Steve Scherf et al.
# Submitted via: FreeRIP 2.943 
#
DISCID=d50c6610
DTITLE=Daniel - Meu Reino Encantado II
DYEAR=2003
DGENRE=Sertanejo
TTITLE0=Encanto da natureza-Daniel
TTITLE1=Mundo velho-Daniel
TTITLE2=Paixão dupla-Daniel
TTITLE3=Pout pourri: pagodes-Daniel
TTITLE4=Rolinha Cabocla-Daniel
TTITLE5=Versos aos pés do homem-Daniel
TTITLE6=Moradia-Daniel
TTITLE7=Cobra venenosa-Daniel
TTITLE8=Pra tudo se dá um jeito-Daniel
TTITLE9=Cabelo loiro-Daniel
TTITLE10=Consagração-Daniel
TTITLE11=Viuva rica-Daniel
TTITLE12=Travessia do Araguaia-Daniel
TTITLE13=Tudo é beleza-Daniel
TTITLE14=Minha vida-Daniel
TTITLE15=Minas Gerais-Daniel
EXTD=YEAR: 2003
EXTT0=
EXTT1=
EXTT2=
EXTT3=
EXTT4=
EXTT5=
EXTT6=
EXTT7=
EXTT8=
EXTT9=
EXTT10=
EXTT11=
EXTT12=
EXTT13=
EXTT14=
EXTT15=
PLAYORDER=
